<?xml version="1.0" encoding="UTF-8" standalone="no"?>
<svg
   xmlns:dc="http://purl.org/dc/elements/1.1/"
   xmlns:cc="http://creativecommons.org/ns#"
   xmlns:rdf="http://www.w3.org/1999/02/22-rdf-syntax-ns#"
   xmlns:svg="http://www.w3.org/2000/svg"
   xmlns="http://www.w3.org/2000/svg"
   xmlns:sodipodi="http://sodipodi.sourceforge.net/DTD/sodipodi-0.dtd"
   xmlns:inkscape="http://www.inkscape.org/namespaces/inkscape"
   viewBox="0 0 64 64"
   id="svg2"
   version="1.1"
   inkscape:version="0.91 r13725"
   sodipodi:docname="module-viewstatistics.svg">
  <metadata
     id="metadata16">
    <rdf:RDF>
      <cc:Work
         rdf:about="">
        <dc:format>image/svg+xml</dc:format>
        <dc:type
           rdf:resource="http://purl.org/dc/dcmitype/StillImage" />
        <dc:title>module-info</dc:title>
      </cc:Work>
    </rdf:RDF>
  </metadata>
  <defs
     id="defs14" />
  <sodipodi:namedview
     pagecolor="#ffffff"
     bordercolor="#666666"
     borderopacity="1"
     objecttolerance="10"
     gridtolerance="10"
     guidetolerance="10"
     inkscape:pageopacity="0"
     inkscape:pageshadow="2"
     inkscape:window-width="959"
     inkscape:window-height="1174"
     id="namedview12"
     showgrid="false"
     inkscape:zoom="3.6875"
     inkscape:cx="-6.6440678"
     inkscape:cy="32"
     inkscape:window-x="2879"
     inkscape:window-y="0"
     inkscape:window-maximized="0"
     inkscape:current-layer="svg2" />
  <title
     id="title4">module-info</title>
  <g
     fill="none"
     fill-rule="evenodd"
     id="g6"
     style="fill:#4100cc;fill-opacity:1">
    <path
       d="M0 0h64v64H0z"
       fill="#6DAAE0"
       id="path8"
       style="fill:#4100cc;fill-opacity:1" />
  </g>
  <path
     inkscape:connector-curvature="0"
     d="m 54.711864,15.893814 -11.220339,2.283339 3.209017,3.194057 -10.006672,10.019763 -5.61204,-5.61391 -13.718734,13.542949 2.636779,2.65174 11.074475,-10.909909 5.593339,5.597079 12.680853,-12.645322 3.117384,3.104294 2.245938,-11.22408 z m -31.211243,12.112356 -6.137525,-6.057113 2.636779,-2.65174 6.167447,6.075814 -2.666701,2.633039 z m 28.967175,6.146876 2.244068,11.222209 -11.220339,-2.283339 3.209017,-3.194056 -3.98322,-3.988831 2.638649,-2.633039 3.994441,3.98135 3.117384,-3.104294 z m 2.244068,15.298932 0,3.740113 -44.8813557,0 0,-41.141244 3.7401127,0 0,37.401131 41.141243,0 z"
     id="path4-3"
     style="fill:#ffffff" />
</svg>
